<?xml version="1.0" encoding="UTF-8"?> <svg xmlns="http://www.w3.org/2000/svg" xmlns:xlink="http://www.w3.org/1999/xlink" id="Group_95" data-name="Group 95" width="230" height="170.887" viewBox="0 0 230 170.887"><defs><clipPath id="clip-path"><rect id="Rectangle_24" data-name="Rectangle 24" width="230" height="170.887" fill="none"></rect></clipPath></defs><g id="Group_41" data-name="Group 41" clip-path="url(#clip-path)"><path id="Path_1" data-name="Path 1" d="M292.142,411.076a14.328,14.328,0,0,1-4.122,1.487,13.556,13.556,0,0,1-2.572.251,12.067,12.067,0,0,1-5.392-1.246c-.1-.048-.2-.089-.294-.139q-1.213,1.4-2.5,2.721c-9.432,9.651-21.894,15.9-36.66,15.984-17.754.216-32.333-9.19-42.382-22.511a72.772,72.772,0,0,1-4.8-7.229q-1.809-3.11-3.323-6.381a.122.122,0,0,0-.234.051v10.577a6.176,6.176,0,0,1-2.029,4.569.41.41,0,0,0-.018.585c13.442,14.041,33.387,21.823,52.782,21.727,18.876.233,38.106-7.116,51.66-20.286a.1.1,0,0,0-.118-.159" transform="translate(-130.82 -274.554)" fill="#80bc00"></path><path id="Path_2" data-name="Path 2" d="M179.643,83.986c13.539-15.92,36.171-22.068,55.931-15.884A61.558,61.558,0,0,1,259.54,81.7a6.185,6.185,0,0,1,4.079-2.8l9.244-1.76a.306.306,0,0,0,.158-.519,63.306,63.306,0,0,0-49.247-18.315c-25.225,1.53-47.939,17.911-60.214,39.641l.346-.066,7.628-1.452a53.915,53.915,0,0,1,8.111-12.444" transform="translate(-113.992 -40.524)" fill="#80bc00"></path><path id="Path_3" data-name="Path 3" d="M645.015,278.688a7.84,7.84,0,0,0,1.8,2.335,7.5,7.5,0,0,0,3.2,1.63,9.051,9.051,0,0,0,2.8.2h.008a11.51,11.51,0,0,0,1.314-.168,12.194,12.194,0,0,0,4.2-1.632,12.974,12.974,0,0,0,3.332-2.981,14.268,14.268,0,0,0,2.2-4.008,13.758,13.758,0,0,0,.8-4.67,11.166,11.166,0,0,0-.781-4.3,8.276,8.276,0,0,0-2.11-3.041,7.545,7.545,0,0,0-3.185-1.656,9.429,9.429,0,0,0-4.112-.052,11.918,11.918,0,0,0-4.189,1.654,13.674,13.674,0,0,0-3.364,3.018,13.841,13.841,0,0,0-1.909,3.229c-.11.257-.221.514-.316.78a13.614,13.614,0,0,0-.763,3.847h0c-.015.273-.034.546-.034.823a11.164,11.164,0,0,0,.781,4.3c.1.242.215.469.332.694" transform="translate(-448.764 -181.301)" fill="#fff"></path><path id="Path_4" data-name="Path 4" d="M648.36,128.684l15.764-3,.1-3.021.056-1.673,1.48-43.929L647.325,80.57l-.6.115,1.571,46.011Z" transform="translate(-450.729 -53.707)" fill="#fff"></path><path id="Path_5" data-name="Path 5" d="M170.752,125.753l-6.409,1.22-13.557,2.581v20.259h0v0a20.952,20.952,0,0,0-.959-3.665q-.292-.812-.652-1.574c-.076-.162-.143-.331-.224-.489a16.517,16.517,0,0,0-6.368-6.776,20.506,20.506,0,0,0-4.632-2c-.5-.15-1.018-.281-1.545-.4q-.684-.159-1.4-.286c-.106-.019-.216-.033-.323-.051-.166-.028-.335-.054-.5-.08-.585-.09-1.178-.17-1.793-.229-.536-.051-1.083-.088-1.64-.115-.181-.009-.368-.011-.551-.017-.294-.01-.592-.016-.89-.02-.086,0-.17-.005-.256-.006h0c-.085,0-.172,0-.258,0l-.26,0c-.251,0-.512.015-.767.021-.317.008-.629.011-.952.026l-.3.015c-.08,0-.16.006-.241.011-.284.016-.579.047-.866.068-.444.033-.882.06-1.337.106-.122.012-.248.03-.371.043l-.081.01q-.936.1-1.9.24l-.24.035-.393.058c-.794.122-1.6.255-2.42.411q-3.341.636-6.98,1.422t-8.287,2l-16.733,3.186h0c-.192.852-.385,1.681-.579,2.5-.185.783-.371,1.549-.557,2.3l-.085.343c-.192.77-.384,1.526-.577,2.264q-.911,3.472-1.9,6.725t-2.116,6.434q-.56,1.592-1.169,3.228t-1.264,3.316c-.05-.1-.094-.206-.143-.31q-1.269-2.691-2.352-5.294-1.144-2.751-2.117-5.63t-1.882-6q-.911-3.128-1.8-6.727l-15.3,2.913-3.741.712-5.006.953-8.326,1.585-2.344.446-1.173.223v14.772h0v9.829l-.569.108-6.4,1.219-8.64,1.644v-24.6l-4.746.9-6.2,1.181L0,158.257v66.97l13.027-2.479,5.588-1.064V196.706l12.465-2.373,3.146-.6v8.587h0v16.39l8.382-1.6,4.157-.791,5.85-1.114.227-.043V184.058h0V155.523h0l.1.348c.063.215.127.428.191.642.011.035.022.069.032.1q.389,1.309.794,2.592c.007.021.013.043.02.064.074.232.145.467.22.7.018.055.034.112.052.167.049.148.1.292.154.44.189.572.4,1.132.594,1.7.05.145.1.287.155.432.445,1.28.894,2.557,1.369,3.815q.839,2.244,1.747,4.44c.6,1.432,1.223,2.847,1.87,4.251.514,1.124,1.051,2.235,1.593,3.344.081.166.157.334.238.5.278.565.544,1.137.829,1.7.093.184.178.373.272.557s.187.352.279.528q.4.765.806,1.529c.052.1.109.193.161.289q.938,1.741,1.938,3.477c.122.211.247.422.37.633.705,1.21,1.426,2.417,2.179,3.622V212.13l.436-.083,18.178-3.462V187.849l.007-.014q3.125-6.2,5.747-12.251t4.8-12.178q2.176-6.117,4-12.354c.494-1.695.957-3.423,1.414-5.157h0v59.65L115.7,203.2l5.106-.972L122,202V186.545l.126-.025.037-.007.091-.017a50.892,50.892,0,0,0,12.054-4.84,36.9,36.9,0,0,0,9.109-7.153,29.524,29.524,0,0,0,5.74-9.175,28.442,28.442,0,0,0,1.628-6.273v37.469h0l12.762-2.429,15.4-2.932,7.179-1.367,2.151-.409,1.032-.2.734-.14V171.989l-.04.008-.77.147-.517.1-7.583,1.444L169.4,175.92v-8.012l11.283-2.148,7.724-1.47.5-.094V147.135l-1.8.343-2.571.489-.049.009-7.546,1.437-7.536,1.434v-7.776l1.175-.224,3.385-.645,7.343-1.4,3.571-.68,5.172-.985V122.08L177.7,124.43ZM131.39,162.466a9.937,9.937,0,0,1-1.912,3.144,11.03,11.03,0,0,1-2.972,2.31,13.392,13.392,0,0,1-3.908,1.356l-.3.057-.3.057V151.905l.3-.057.3-.057a12.78,12.78,0,0,1,4.121-.2,6.236,6.236,0,0,1,2.972,1.155,5.519,5.519,0,0,1,1.786,2.369,9.144,9.144,0,0,1,.595,3.446,10.821,10.821,0,0,1-.681,3.9" transform="translate(0 -85.083)" fill="#fff"></path><path id="Path_6" data-name="Path 6" d="M405.773,410.364l-.008-.005a2.384,2.384,0,0,0-.365-.23c-.042-.022-.087-.038-.131-.057a2.619,2.619,0,0,0-.29-.111l-.009,0c-.051-.016-.1-.029-.157-.042-.1-.024-.2-.045-.31-.061-.059-.009-.119-.018-.181-.024-.117-.012-.239-.018-.363-.021-.055,0-.108,0-.164,0h0c-.118,0-.252.016-.379.024s-.246.01-.38.024l-.172.021c-.279.035-.568.079-.879.14l-.764.148-1.59.308-.764.148v13.4l2.558-.5v-5.674l.25-.049c.432-.084.848-.167,1.246-.272a5.764,5.764,0,0,0,2.237-1.075,4.332,4.332,0,0,0,1.7-3.5,3.247,3.247,0,0,0-1.082-2.59m-1.658,3.89c-.02.034-.042.066-.065.1a2.191,2.191,0,0,1-1.432.785l-.5.1-.443.086-.253.049v-2.744l1.082-.21h0a3.469,3.469,0,0,1,.584-.062c.039,0,.078,0,.115,0a1.767,1.767,0,0,1,.45.061c.022.007.04.017.061.024a.974.974,0,0,1,.3.165c.015.013.034.023.049.037a.841.841,0,0,1,.1.149.9.9,0,0,1,.1.149c.01.025.018.052.027.078a1.351,1.351,0,0,1,.068.423,1.531,1.531,0,0,1-.238.816" transform="translate(-277.987 -285.613)" fill="#fff"></path><path id="Path_7" data-name="Path 7" d="M453.867,405.678a4.338,4.338,0,0,0,.438-1.938,4.048,4.048,0,0,0-.161-1.1,2.98,2.98,0,0,0-.59-1.151,2.418,2.418,0,0,0-.225-.231c-.038-.034-.068-.08-.108-.111-.065-.051-.135-.09-.2-.133s-.119-.079-.181-.112c-.044-.023-.092-.04-.137-.06a2.669,2.669,0,0,0-.284-.112c-.057-.018-.117-.032-.176-.046-.093-.023-.189-.044-.288-.059-.064-.01-.13-.018-.2-.024-.1-.01-.208-.015-.316-.018-.062,0-.124,0-.188,0-.128,0-.262.008-.4.018-.119.009-.24.019-.366.033l-.16.021c-.08.01-.157.019-.238.032l-.044.006c-.2.031-.4.067-.614.109l-3.117.6h0v13.4l1.3-.253,1.254-.243v-5.675l.07-.014.172-.033,3.005,5.092.5-.1,2.279-.442-3.174-5.34a4.963,4.963,0,0,0,2.139-2.127m-2.18-.84a1.422,1.422,0,0,1-.327.488,2.517,2.517,0,0,1-1.311.6l-1.176.228v-2.745l.652-.126.3-.057.153-.03h0a3.5,3.5,0,0,1,.513-.055c.072,0,.146-.007.212,0a1.73,1.73,0,0,1,.186.025,1.325,1.325,0,0,1,.363.1.928.928,0,0,1,.147.082.816.816,0,0,1,.2.211c.005.008.014.012.019.02s.024.039.038.057a.336.336,0,0,1,.041.063,1.263,1.263,0,0,1,.067.2,1.336,1.336,0,0,1,.023.156,1.26,1.26,0,0,1,.016.153c0,.045-.008.085-.011.129a1.827,1.827,0,0,1-.017.2c0,.024-.014.044-.019.067a1.512,1.512,0,0,1-.065.228l0,.008" transform="translate(-311.057 -279.184)" fill="#fff"></path><path id="Path_8" data-name="Path 8" d="M505.589,394.787c.008-.138.02-.276.02-.416,0-.242-.014-.478-.036-.708-.007-.071-.02-.138-.028-.208-.02-.156-.042-.31-.072-.459-.016-.082-.038-.161-.057-.241-.032-.132-.066-.262-.105-.389-.026-.081-.053-.159-.082-.238-.043-.12-.089-.239-.14-.354-.033-.075-.067-.15-.1-.223-.055-.112-.115-.221-.176-.328-.039-.068-.077-.136-.119-.2-.069-.109-.144-.213-.22-.315-.041-.055-.08-.113-.123-.166-.1-.122-.2-.238-.311-.35-.027-.027-.05-.058-.077-.085a5.29,5.29,0,0,0-.432-.384c-.043-.034-.089-.063-.133-.1-.11-.083-.222-.163-.339-.237-.05-.032-.1-.06-.151-.089l-.038-.02c-.1-.06-.209-.119-.319-.172-.071-.035-.143-.066-.216-.1-.106-.047-.214-.091-.324-.131-.077-.028-.155-.055-.234-.079-.111-.035-.224-.066-.339-.1-.049-.012-.1-.03-.146-.041-.031-.007-.063-.009-.094-.015-.121-.025-.244-.044-.368-.062l-.092-.012c-.047-.007-.093-.015-.141-.02-.113-.011-.228-.016-.343-.021l-.088-.005c-.063,0-.124-.008-.188-.009h0c-.136,0-.275.01-.413.018h-.012l-.067,0c-.056,0-.112,0-.169.008-.2.019-.4.049-.6.087-.023,0-.046.005-.069.01l-.008,0a7.771,7.771,0,0,0-1.017.277c-.04.014-.08.025-.119.039a8.3,8.3,0,0,0-.936.406c-.045.023-.091.045-.135.069a8.74,8.74,0,0,0-.881.533l-.1.07a9.135,9.135,0,0,0-.846.675l-.018.017c-.122.111-.244.222-.36.34s-.2.225-.3.336c-.073.082-.147.162-.217.245-.174.208-.334.425-.489.648-.06.086-.123.169-.179.256-.15.232-.283.473-.41.718-.046.088-.1.172-.141.261a8.706,8.706,0,0,0-.4.984c0,.014-.012.027-.017.042a7.836,7.836,0,0,0-.409,2.452,6.956,6.956,0,0,0,.088,1.061c0,.026.008.052.012.078.008.048.013.1.022.146a6.145,6.145,0,0,0,.273.983c.02.056.042.111.063.166,0,0,0,0,0,0a5.608,5.608,0,0,0,.432.859v0c.026.042.055.081.082.123.061.093.139.17.2.259a4.838,4.838,0,0,0,.4.507l.01.009.015.014a5.091,5.091,0,0,0,.693.578c.015.011.028.025.043.036h0c.034.024.067.051.1.074a5.289,5.289,0,0,0,.838.445l.082.034.083.034c.145.057.294.106.447.151s.32.089.486.123c.041.008.083.014.125.021l.043.007c.115.02.233.033.351.048s.239.025.361.032.229.017.346.018h0c.153,0,.31-.01.468-.021.074,0,.146,0,.221-.011.237-.023.478-.057.722-.1a7.778,7.778,0,0,0,.872-.229,8.853,8.853,0,0,0,4.795-3.8,8.277,8.277,0,0,0,1.238-3.877m-2.636.92c-.009.055-.018.111-.029.165a5.482,5.482,0,0,1-.222.8c-.014.039-.032.077-.047.116a5.763,5.763,0,0,1-.328.7c-.02.036-.038.073-.058.109a5.854,5.854,0,0,1-.468.681c-.035.044-.071.086-.107.129a5.693,5.693,0,0,1-1.248,1.111c-.067.044-.137.082-.206.123a5.151,5.151,0,0,1-.553.283c-.074.032-.147.067-.222.1a4.817,4.817,0,0,1-.8.237,4.591,4.591,0,0,1-.87.085,3.927,3.927,0,0,1-.5-.051c-.055-.007-.113-.008-.168-.017-.035-.006-.072,0-.105-.011-.015,0-.031,0-.046,0-.065-.014-.122-.044-.187-.061a3.586,3.586,0,0,1-.479-.157c-.087-.037-.166-.084-.249-.128a3.272,3.272,0,0,1-.385-.234c-.079-.057-.153-.12-.227-.185a3.137,3.137,0,0,1-.312-.314c-.066-.075-.129-.152-.189-.235a3.407,3.407,0,0,1-.24-.4c-.048-.09-.1-.176-.137-.272a3.973,3.973,0,0,1-.166-.519c-.024-.092-.056-.177-.075-.273a4.763,4.763,0,0,1-.085-.879c0-.009,0-.016,0-.025a5.572,5.572,0,0,1,4.387-5.479h.01a4.387,4.387,0,0,1,.729-.072c.048,0,.1-.006.144-.005.013,0,.028,0,.041,0,.075,0,.141.023.215.029a3.7,3.7,0,0,1,.549.074c.025.006.054,0,.079.011.071.019.132.055.2.078a3.349,3.349,0,0,1,.442.17c.092.045.176.1.262.149a3.288,3.288,0,0,1,.367.255c.033.027.074.045.106.074s.077.086.119.126a3.408,3.408,0,0,1,.3.334c.063.08.125.159.182.244a3.753,3.753,0,0,1,.23.416c.043.088.089.172.126.264a4.033,4.033,0,0,1,.159.524c.008.031.016.062.025.093a1.437,1.437,0,0,1,.041.155c.011.059.009.124.018.184a4.436,4.436,0,0,1,.062.659,5.162,5.162,0,0,1-.079.854" transform="translate(-342.663 -270.777)" fill="#fff"></path><path id="Path_9" data-name="Path 9" d="M556,392.263c.039.009.078.021.118.029a3.912,3.912,0,0,0,.573.072c.042,0,.084,0,.126,0s.1,0,.152,0a4.458,4.458,0,0,0,.76-.075h.005a3.933,3.933,0,0,0,2.614-1.72,5.849,5.849,0,0,0,.709-3.311V377.9l-2.558.5v9.782a3.861,3.861,0,0,1-.043.585c-.007.048-.017.09-.027.135a1.745,1.745,0,0,1-.1.333c-.015.036-.029.074-.047.107a.839.839,0,0,1-.6.456h0a1.445,1.445,0,0,1-.417.01c-.017,0-.036,0-.053,0s-.025,0-.037,0c-.031,0-.06-.022-.091-.029a1.7,1.7,0,0,1-.279-.088c-.054-.022-.11-.042-.164-.07a2.782,2.782,0,0,1-.292-.18l-.018-.011c-.038-.026-.077-.049-.115-.077-.139-.1-.278-.22-.421-.348l-.4.457-.054.06-.458.519-.915,1.035a4.49,4.49,0,0,0,.5.449c.027.021.054.039.081.06.042.031.085.064.127.093.024.017.047.036.071.052a3.948,3.948,0,0,0,.549.3c.022.01.044.018.067.026l.035.014a3.77,3.77,0,0,0,.473.151c.046.012.09.033.136.043" transform="translate(-386.082 -263.376)" fill="#fff"></path><path id="Path_10" data-name="Path 10" d="M603.6,372.058l3.18-.616.41-.079v-2.5h0l-2.778.539-3.215.623-1.324.257v13.4h0l7.316-1.418v-2.5h0l-4.76.922v-3.509l4.15-.8.61-.118v-2.5l-.722.14-1.276.248-2.455.476-.307.059v-2.39Z" transform="translate(-418.076 -257.076)" fill="#fff"></path><path id="Path_11" data-name="Path 11" d="M654.932,369.762l-.511-.434-.945-.8-.28-.238-.007.007a13.7,13.7,0,0,1-.926,1.01l0,0a7.567,7.567,0,0,1-.941.788l0,0a5.562,5.562,0,0,1-1.015.566h0a5.723,5.723,0,0,1-1.156.349h0a5.339,5.339,0,0,1-.989.1,4.36,4.36,0,0,1-.823-.071c-.068-.013-.128-.038-.193-.054a3.649,3.649,0,0,1-.551-.172c-.085-.035-.162-.082-.242-.124a3.215,3.215,0,0,1-.407-.245c-.079-.057-.151-.121-.224-.185a3.053,3.053,0,0,1-.321-.324c-.065-.076-.126-.153-.184-.236a3.415,3.415,0,0,1-.243-.413c-.045-.089-.093-.175-.131-.271a4.112,4.112,0,0,1-.165-.535c-.022-.09-.053-.174-.07-.268a5.08,5.08,0,0,1-.085-.916,5.731,5.731,0,0,1,4.573-5.459,5.155,5.155,0,0,1,.889-.088c.046,0,.094,0,.14,0a4.4,4.4,0,0,1,.526.038c.071.009.141.02.21.032.048.009.1.022.143.032a4.293,4.293,0,0,1,.637.191c.032.012.066.021.1.035a4.779,4.779,0,0,1,.665.345c.051.031.1.064.151.1a6.066,6.066,0,0,1,.644.482l0,0,.617-.711,1.174-1.353h0a5.759,5.759,0,0,0-.83-.654c-.067-.045-.135-.089-.2-.131-.165-.1-.337-.192-.512-.276-.137-.066-.273-.135-.415-.19-.041-.016-.084-.026-.126-.042a6.387,6.387,0,0,0-.928-.258c-.076-.015-.15-.033-.226-.046a6.9,6.9,0,0,0-.956-.1c-.039,0-.079,0-.118,0-.161,0-.325,0-.488.015-.084,0-.168,0-.252.012-.137.012-.276.038-.414.058-.118.017-.236.026-.354.049l-.017,0a8.53,8.53,0,0,0-1.137.31c-.123.042-.242.095-.363.142-.245.1-.486.2-.721.316-.14.07-.276.144-.413.221-.207.117-.407.242-.6.375-.139.093-.276.184-.409.284-.187.141-.362.294-.538.449-.1.089-.213.166-.311.26a8.668,8.668,0,0,0-.727.805c-.036.044-.07.089-.1.133q-.248.32-.467.662c-.042.064-.085.127-.124.193a8.713,8.713,0,0,0-.455.849l-.008.014a8.1,8.1,0,0,0-.749,3.386,7.871,7.871,0,0,0,.092,1.173c.008.054.014.109.023.162a6.286,6.286,0,0,0,.158.615c.034.126.056.262.1.382v0c.02.057.04.114.061.17q.087.23.189.445c.07.148.144.294.226.432.022.036.047.07.069.105.071.113.161.207.239.314a4.683,4.683,0,0,0,.329.432l0,0c.009.01.017.022.027.031h0a4.457,4.457,0,0,0,.525.445c.066.051.122.113.191.162.042.03.083.061.126.089h0a4.956,4.956,0,0,0,.76.4c.019.008.036.021.055.029.053.022.108.042.163.063h0c.061.023.131.034.194.055a5.355,5.355,0,0,0,.748.213c.039.008.081.011.121.018a6.656,6.656,0,0,0,1.032.09c.038,0,.074,0,.112,0h.038c.085,0,.173-.011.259-.015l.186-.011.107-.006c.055,0,.11,0,.167-.01.171-.017.347-.048.523-.077.082-.013.162-.02.245-.036l.023,0a9.435,9.435,0,0,0,5.824-3.7Z" transform="translate(-447.449 -250.374)" fill="#fff"></path><path id="Path_12" data-name="Path 12" d="M700.729,350.693l-.542.105v2.5l1.438-.278.951-.184v10.9l2.115-.41.443-.086v-10.9l.6-.116.832-.161,1.031-.2v-2.5Z" transform="translate(-487.991 -243.486)" fill="#fff"></path><path id="Path_13" data-name="Path 13" d="M2.389,172.229v10.9h0l.409-.079,2.149-.416v-10.9l.422-.082,1.349-.262.694-.135v-2.5l-.694.134L0,170.191v2.5l2.389-.463Z" transform="translate(0 -117.613)" fill="#fff"></path><path id="Path_14" data-name="Path 14" d="M45.2,167.985l4.519-.876h0v5.861l2.556-.5v-13.4l-.576.112-.575.111-1.406.273v5.04l-.725.14-3.793.735h0v-5.04l-1.862.361-.121.023-.573.111v6.414h0v6.988l2.556-.5Z" transform="translate(-29.717 -110.865)" fill="#fff"></path><path id="Path_15" data-name="Path 15" d="M96.952,164.849l7.23-1.4v-2.5l-4.76.922V158.36l4.519-.876.241-.047v-2.5l-.241.047-3.815.739-.7.136v-2.389l1.843-.357,2.916-.565v-2.5l-1.588.308-5.728,1.11v13.4h0Z" transform="translate(-67.509 -104.573)" fill="#fff"></path><path id="Path_16" data-name="Path 16" d="M285.465,438.616a10.247,10.247,0,0,1-4.472,2.056,10.755,10.755,0,0,1-2.034.2,10,10,0,0,1-2.439-.308.525.525,0,0,0-.5.133q-2.283,2.252-4.757,4.3c-29.972,25.417-78.5,29.391-108.035,1.445-1.294-1.215-2.517-2.5-3.7-3.815a.535.535,0,0,0-.5-.168l-3.562.678a.336.336,0,0,0-.2.542c22.495,27.464,60.1,41.967,95.279,26.694,15.137-6.378,26.986-17.8,35.08-31.608a.11.11,0,0,0-.164-.141" transform="translate(-108.161 -305.673)" fill="#963ebd"></path><path id="Path_17" data-name="Path 17" d="M97.151,195.672l7.23-1.4-7.23,1.4Z" transform="translate(-67.709 -135.396)" fill="#963ebd"></path><path id="Path_18" data-name="Path 18" d="M131.738,53.876a.064.064,0,0,0,.12.03,76.074,76.074,0,0,1,66.8-40.117c20.137-.34,40.419,7.781,55.38,21.317a.761.761,0,0,0,.653.184l7.719-1.47a.379.379,0,0,0,.24-.587A75.376,75.376,0,0,0,231.442,7.1a82.1,82.1,0,0,0-65.762-.454,83.6,83.6,0,0,0-38.17,32.77.148.148,0,0,0,.079.218,6.138,6.138,0,0,1,1.883,1.049,6.2,6.2,0,0,1,2.256,4.786Z" transform="translate(-88.852 0)" fill="#963ebd"></path><path id="Path_19" data-name="Path 19" d="M737.775,344.145a3.77,3.77,0,1,0,3.775,3.775,3.778,3.778,0,0,0-3.775-3.775m0,7.042a3.272,3.272,0,1,1,3.246-3.267,3.267,3.267,0,0,1-3.246,3.267" transform="translate(-511.55 -239.85)" fill="#fff"></path><path id="Path_20" data-name="Path 20" d="M744.564,352.51c0-.591-.115-.8-.5-.986a1.006,1.006,0,0,0,.55-1,1.129,1.129,0,0,0-.757-1.11,2.611,2.611,0,0,0-.788-.073h-1.825v4.346h.7v-1.815H743.2c.529,0,.654.176.685.643l.031.529a3.308,3.308,0,0,0,.1.643h.767a1.078,1.078,0,0,1-.228-.7Zm-1.39-1.255H741.95v-1.286h1.1c.467,0,.872.052.872.644,0,.445-.249.643-.747.643" transform="translate(-516.607 -243.475)" fill="#fff"></path></g></svg> 